<svg id="Camada_1" data-name="Camada 1" xmlns="http://www.w3.org/2000/svg" viewBox="0 0 1200 417"><defs><style>.cls-1{fill:#136ad1;stroke:#16549e;}.cls-2{fill:#fff;}</style></defs><path class="cls-1" d="M-174,467.32h13.37c.1,2,.26,3.73.26,5.48,0,14,.06,28,0,42,0,6.73,1.4,12.89,8.1,15.86,7.32,3.24,15,3.54,22-.91,5.38-3.4,6.26-9.18,6.31-15,.1-13.83,0-27.66,0-41.49v-5.85h14c0,7.89,0,15.36,0,22.83,0,9.83.07,19.67-.25,29.49-.45,13.83-7.12,21.9-20.63,25-9.25,2.15-18.56,2-27.51-1.46-9.3-3.59-15.47-10.09-15.62-20.48C-174.16,504.55-174,486.25-174,467.32Z" transform="translate(294 -187.5)"/><path class="cls-1" d="M-89.53,466.48c12.35.61,24.55.37,36.47,2,10.43,1.48,15.48,8.86,16.57,20.23,1.08,11.16-4.39,21.65-14.08,25.9a44.16,44.16,0,0,1-12,3.07c-3.92.51-8,.11-12.74.11v26.22H-89.53Zm14.22,39.15c8.34.05,16.67,2,22.18-6.06,3-4.36,2.68-12.37-.59-16-6.1-6.83-14.06-3.61-21.59-4.26Z" transform="translate(294 -187.5)"/><path class="cls-1" d="M-292.52,467.36h47.16v11.76H-278v20.42h26.49v12.11c-6.93,0-13.87.28-20.77-.1-4.75-.25-6.4,1.15-6.17,6.08.4,8.61.11,17.26.11,26.33h-14.16Z" transform="translate(294 -187.5)"/><path class="cls-1" d="M-185.33,532.6V544h-45.12V467.51h13.51v6c0,17.81.12,35.62-.08,53.43,0,4.28,1,5.91,5.57,5.72C-203,532.35-194.49,532.6-185.33,532.6Z" transform="translate(294 -187.5)"/><path class="cls-2" d="M-35,187.5v223H-294v-223ZM-153.58,222c-.06,4-.06,4,3.63,4.12,10.07.32,12.8,2.75,14.26,12.71a21.58,21.58,0,0,1,.34,3c0,29.66.6,59.34-.21,89-.62,22.4-12.21,35.85-31.31,39.36-21.87,4-36.44-5.37-40.93-26.75a89.16,89.16,0,0,1-2-17.82c-.22-31.66-.13-63.33-.13-95,0-1.3.18-2.59.32-4.48,4.83,0,9.45.14,14.06-.1,1.09-.05,2.12-1.33,3.17-2.05-1-.66-1.9-1.88-2.85-1.89q-31.5-.15-63,0c-1.05,0-2.08,1.73-3.12,2.65l.95,1.49h16.34v6.37c0,31.66-.28,63.33.17,95,.3,20.54,9.78,36,28.58,45.07,12.55,6.07,26,6.95,39.58,5.66,31.09-3,47.52-20.72,47.85-51.86.29-26.33.07-52.66.1-79a66.61,66.61,0,0,1,.4-8.48c1.37-10.21,3.27-11.9,13.45-13,1.09-.11,2-1.38,3.06-2.11-.94-.64-1.87-1.83-2.81-1.84C-126.87,221.91-140,222-153.58,222Zm81.7,140.23a15.27,15.27,0,0,0-15.25-15.67,15.52,15.52,0,0,0-15.69,15.35,15.5,15.5,0,0,0,15.38,15.66A15.22,15.22,0,0,0-71.88,362.18Z" transform="translate(294 -187.5)"/><path class="cls-2" d="M618,604.5a12.91,12.91,0,0,0-2.22-.93c-14.59-3.3-22.66-17-19-32.15,3.43-14.08,16.9-21.84,31.22-18,10.79,2.91,17.84,12.71,17.86,24.78s-7.31,22.25-18.21,25.1c-1.25.32-2.46.78-3.69,1.18Zm21.15-26c.07-11.28-7.91-20.55-17.89-20.78s-18.38,8.92-18.53,20.13c-.16,11.76,7.71,20.81,18.13,20.85C631.09,598.74,639.09,589.91,639.15,578.5Z" transform="translate(294 -187.5)"/><path class="cls-2" d="M737,604.5c-1.74-.49-3.49-1-5.22-1.47-12.43-3.68-19.29-16.21-16.77-30.62,2.2-12.58,13.46-20.84,27-19.82,12.31.94,21.65,11.08,22.15,24,.55,14.59-6.52,23.78-20.87,27.15a5.65,5.65,0,0,0-1.29.71Zm2.38-5.8c10.1,0,18.27-9,18.36-20.28.08-11-8.25-20.56-18.13-20.72-10.06-.16-18.66,9.44-18.58,20.73S729.25,598.69,739.38,598.7Z" transform="translate(294 -187.5)"/><path class="cls-2" d="M879,604.5c-1.87-.58-3.75-1.13-5.61-1.74-11.12-3.69-17.22-13.75-16.46-27.12a24.3,24.3,0,0,1,19.64-22.71c11.61-2.36,22.4,3,27.67,13.74A33.28,33.28,0,0,0,906,569.5v17c-4.09,10-11.25,16.18-22,18Zm21-26.11c0-11.13-8.17-20.51-18.11-20.67s-18.35,9.07-18.56,20.25c-.21,11.4,8.08,20.74,18.39,20.73C891.84,598.69,900,589.67,900,578.39Z" transform="translate(294 -187.5)"/><path class="cls-2" d="M23,604.5c-11.31-4.13-14.62-12.66-13.93-24,.53-8.76.1-17.58.1-26.72l6-.41c0,5.19,0,10.12,0,15,0,5.83-.11,11.66.1,17.48.32,8.52,5.41,13.41,13.53,13.31S41.9,594.11,42,585.6c.1-10.47,0-20.94,0-31.77h5.73c0,12.18.45,24.31-.16,36.39-.4,8-6.87,11.57-13.58,14.28Z" transform="translate(294 -187.5)"/><path class="cls-2" d="M281,604.5l-13.44-4.94c1.21-2.15,2-3.51,2.94-5.22,1.78.85,3.29,2,5,2.3,3.68.75,7.54,1.83,11.13,1.36,2.26-.29,5.52-2.9,5.91-4.94.49-2.57-.78-6.23-2.58-8.3-2.06-2.38-5.58-3.46-8.39-5.22s-5.83-3.32-8.22-5.56c-6.58-6.15-5.14-15.52,3-19.33,8-3.72,15.78-2.6,23.45,2.05l-2.17,3.86c-5-.83-9.52-2.33-14-2-2.69.18-6.2,2.55-7.57,5-1.91,3.36.76,6.25,3.85,8.1,3.84,2.31,7.77,4.49,11.6,6.83,6.74,4.12,8.72,8,7.52,14.77-1.16,6.51-5.7,9.37-11.75,10.5a15.3,15.3,0,0,0-2.32.83Z" transform="translate(294 -187.5)"/><path class="cls-2" d="M155,604.5l-17.19-45.67c-.58-1.54-1.14-3.09-1.78-4.83,4.11-1.3,6.42-.52,7.93,3.81,4.1,11.74,8.7,23.3,13.47,35.92,4.63-12.65,9-24.24,13.07-36,1.27-3.73,3.07-5.21,7.39-3.83Q168.44,579.23,159,604.5Z" transform="translate(294 -187.5)"/><path class="cls-2" d="M355.22,296.87c4.12.92,8.3,1.79,12.45,2.79,13,3.14,21,11.32,23.2,24.47,2,12,3.2,24.08,4.92,36.11s5.94,14.83,17.59,12.3a4,4,0,0,1,3.31,1.12c-11.84,4-23.89,5.6-35.1-.54-3.82-2.09-7.09-7.35-8.2-11.77-2.83-11.25-4.3-22.85-6.31-34.31-.08-.49-.05-1-.1-1.49-2-19.41-9.87-26.69-29.44-27-4.79-.08-9.58,0-14.67,0v74h21.74l.32,1.68c-1.21.46-2.42,1.3-3.63,1.31q-29.49.12-59,0c-1.11,0-2.22-1.13-3.32-1.74,1.09-.44,2.17-1.24,3.27-1.27,5.79-.13,11.59-.06,17.77-.06v-147c-5.73,0-11.49.11-17.24-.08-1.28,0-2.53-1.12-3.79-1.72,1.26-.45,2.52-1.27,3.78-1.28,23,0,46-.23,69,.21A80.89,80.89,0,0,1,372.39,226c18.32,5.27,26.17,17.11,25.18,36.2-.62,11.95-5.93,20.77-17,25.43C372.36,291.1,363.81,293.78,355.22,296.87Zm-32.37-.64c10-1,19.32-1.24,28.34-3.09,13.06-2.68,20.92-11.19,22.5-24.65a58.21,58.21,0,0,0,0-14.92c-1.63-11.17-5.89-20.93-17.6-25.12-10.73-3.84-21.87-2.93-33.26-2.75Z" transform="translate(294 -187.5)"/><path class="cls-2" d="M711.21,299c0,26.7-9.47,49.19-30.29,66.25-22.69,18.6-53.62,18.39-76.45,0-40.89-33-41-99.32-.25-132.48,22.71-18.47,54.46-18.41,76.86.42C701.48,250.3,711.23,272.45,711.21,299ZM688,298.77l-1.06-.23c-.68-8.79-1.09-17.62-2.11-26.37-1.53-13.22-5.27-25.69-13.58-36.46-13.67-17.7-42.68-18.47-56.1-.61a76.22,76.22,0,0,0-12,24.36c-5.48,19.07-5.44,38.82-3.79,58.48,1.17,14,4.12,27.38,11.19,40,13,23.25,50.21,24.31,63.32-.11,2.74-5.1,5.93-10.32,7-15.86C683.9,327.67,685.76,313.18,688,298.77Z" transform="translate(294 -187.5)"/><path class="cls-2" d="M125.71,307.24c.17-35.17,9.65-57.45,30.26-74.39,22.65-18.6,53.53-18.5,76.39-.16,40.55,32.53,41.26,98.35,1.42,131.75-23.37,19.59-55.55,19.62-78.69-.25C135.05,347,125.57,324.89,125.71,307.24Zm24-11.48c1,12.54,1.43,21.52,2.48,30.44,1.52,13.05,5.24,25.37,13.43,36,13.92,18.11,43.34,18.57,56.75.11a77.15,77.15,0,0,0,11.49-24.06c5.38-19.26,5.36-39.14,3.6-59-1.18-13.34-4-26.1-10.47-38.16-13.24-24.68-51.28-25.72-64.63.25-2.87,5.58-6,11.37-7.17,17.42C152.55,272.13,151.1,285.69,149.67,295.76Z" transform="translate(294 -187.5)"/><path class="cls-2" d="M30.38,304.35V372.5c6.12,0,12.05-.08,18,.06,1.26,0,2.5.85,3.75,1.3-1.28.6-2.57,1.71-3.86,1.71q-28.72.17-57.46,0c-1.29,0-2.57-1.11-3.85-1.71,1.25-.45,2.49-1.27,3.75-1.3,5.62-.14,11.24-.06,17.15-.06V226.05c-6.87-1.49-14.2.58-21-1.16l.09-2a32.87,32.87,0,0,1,4-.48c21,0,42-.41,63,.27a97.08,97.08,0,0,1,25.85,4.67c20.06,6.39,28.14,21.58,25.69,43.87-1.55,14.09-9.83,23.37-22.31,29.05-16.29,7.42-33.15,9.45-50.56,4.3A13.15,13.15,0,0,0,30.38,304.35Zm.21-78.6a14.85,14.85,0,0,0-.42,2.27c0,22.82-.08,45.64.07,68.46a5.63,5.63,0,0,0,2.6,4.1c16.51,8.61,44.55.29,48.17-21.33A89.66,89.66,0,0,0,81.52,255c-1.29-11.94-7.12-21.44-18.91-26.1C52.28,224.79,41.5,225.38,30.59,225.75Z" transform="translate(294 -187.5)"/><path class="cls-2" d="M427.62,267.76c-3-2.48-4-31-2.29-45H557.6v44l-1.37.7c-.63-1.28-1.63-2.51-1.83-3.86-1-6.4-1.26-12.93-2.62-19.24C550.07,236.44,545,231.2,537,229c-11.18-3.13-22.58-3.51-34.44-3.33V372.47h22c.12.55.25,1.09.37,1.64-1,.51-2.06,1.46-3.09,1.47q-30.48.12-61,0c-.95,0-1.9-1.11-2.85-1.7,1.08-.46,2.14-1.28,3.23-1.31,6.11-.12,12.23-.06,18.61-.06V225.55c-13.41.2-26.77-.37-39.18,5.4-9.08,4.22-10.41,13.2-11.72,21.83C428.31,257.5,428.11,262.31,427.62,267.76Z" transform="translate(294 -187.5)"/><path class="cls-2" d="M321.68,515.16v-48c8.76.43,17.42.1,25.82,1.43,11.08,1.77,18.1,11.43,18.11,23s-7.21,21.8-18.38,23.37C339,516.09,330.42,515.16,321.68,515.16Zm9.6-39.67v32.23c8.24,0,16.7,1.61,21.9-6.61a17.26,17.26,0,0,0,.1-19C348.17,473.78,339.54,475.72,331.28,475.49Z" transform="translate(294 -187.5)"/><path class="cls-2" d="M225.47,467.08c9,.46,17.57.16,25.87,1.5,11,1.78,17.77,10.95,18,22.53s-6.11,21.34-16.9,23.4c-8.67,1.66-17.72,1.32-26.94,1.89Zm9.74,8.45V507.7c8.27.11,16.76,1.57,21.84-6.68a17.44,17.44,0,0,0,0-19C251.91,473.78,243.34,475.69,235.21,475.53Z" transform="translate(294 -187.5)"/><path class="cls-2" d="M432.23,467.13c8.78.41,17.16.07,25.28,1.35,11.38,1.79,18.34,11,18.47,22.59.14,12-6.59,21.82-17.81,23.75-8.38,1.44-17.08,1-25.94,1.45Zm9.48,40.58c8.23.09,16.69,1.6,21.88-6.51a17.25,17.25,0,0,0,0-19.39c-5.25-8-13.77-6.18-21.84-6.24Z" transform="translate(294 -187.5)"/><path class="cls-2" d="M667.72,497V515.6h-8.64V467.18c8,.41,16.08.33,24,1.42,5.62.77,8,5.58,8.57,10.92s-.44,10.34-5.4,13.58a49.07,49.07,0,0,1-4.49,2.3l11.29,19.82c-8.65,1.69-9,1.54-12.79-5.09-2-3.6-3.91-7.35-6.26-10.76-1.08-1.56-3.13-2.46-4.74-3.66Zm.33-8.2c5-.65,10.39,1.57,13.23-3.51,1.07-1.91,1.07-5.73-.18-7.39-3.29-4.39-8.35-2.3-13.05-2.4Z" transform="translate(294 -187.5)"/><path class="cls-2" d="M136.74,467.72h8.78c0,9.84-.13,19.46,0,29.08.15,8.57,4.73,12.5,13.08,11.61,6.13-.65,9.22-4,9.32-10.79.15-9.8,0-19.59,0-29.75h8.69c0,11.82.34,23.59-.14,35.32a12.42,12.42,0,0,1-10.33,12,49.63,49.63,0,0,1-17.18.54c-7.85-1.25-11.85-6.11-12.18-14.18C136.4,490.48,136.74,479.35,136.74,467.72Z" transform="translate(294 -187.5)"/><path class="cls-2" d="M775.55,471.17l-3.14,7.12c-4.33-1-8.32-2.47-12.36-2.61-2.37-.09-5.93,1.3-7,3.15-1.79,3.14,1.6,4.85,4,6.34,4,2.46,8.09,4.63,11.9,7.3,5.24,3.66,7,8.68,5.57,14.32-1.55,5.93-5.86,8.67-11.51,9.62-7.89,1.32-15.16-.49-22.39-4.79,1.14-2.62,2.25-5.15,3.51-8,2.16,1,4,2.17,6,2.68,3.17.81,6.49,1.73,9.68,1.52a6.88,6.88,0,0,0,5-3.77c.46-1.3-1.28-3.88-2.68-5.2-1.78-1.66-4.24-2.59-6.36-3.9a89.32,89.32,0,0,1-8-5.09c-8.53-6.54-7.08-17.14,2.85-21.4C758,465.25,768.13,466.32,775.55,471.17Z" transform="translate(294 -187.5)"/><path class="cls-2" d="M98,594.52V553.73l5.61-.3V603c-4.31,1.41-7.13.17-9.66-3.92C86.29,586.65,78.19,574.47,69.48,561v41.88l-5.82.28V554c4.89-1.61,8.13-.37,11,4.31C81.88,570.18,89.67,581.7,98,594.52Z" transform="translate(294 -187.5)"/><path class="cls-2" d="M374.48,467.63h28.83v7.5H383.57v12.09h16.07v7.93H383.56v13h20.75v7.3H374.48Z" transform="translate(294 -187.5)"/><path class="cls-2" d="M579.5,467.78h29v7.49H588.63v12.11h16v7.75h-16v13h20.72v7.32H579.5Z" transform="translate(294 -187.5)"/><path class="cls-2" d="M314.06,515.26c-8,1.76-8.72,1.53-10.79-6.07-1.09-4-2.88-6-7.18-5.3a15.63,15.63,0,0,1-5,0c-4.65-.78-6.78,1.18-8,5.67-2,7.3-2.45,7.31-11.19,5.7L279,495.69c3-8.43,5.95-16.91,9.24-25.24a5.54,5.54,0,0,1,4.19-2.76c1.91,0,5.05.86,5.55,2.15,5.62,14.72,10.85,29.6,16.16,44.44A2.75,2.75,0,0,1,314.06,515.26ZM299,496.06c-1.83-5.7-3.5-10.91-5.16-16.13l-1,0c-1.67,5.24-3.33,10.48-5.14,16.17Z" transform="translate(294 -187.5)"/><path class="cls-2" d="M85.93,515.4c-9.1,1.19-9.34,1.26-11.47-6.47-1.07-3.89-2.78-5.77-6.88-5a11,11,0,0,1-2,0c-8.94,0-9.15-.07-11.85,8.36-1.93,6.06-6.36,2.81-10.35,3.64a42,42,0,0,1,1-4.1c4.9-13.62,9.93-27.19,14.68-40.86,1-3,2.65-3.56,5.46-3.56S69,468,70,471C75.11,485.71,80.51,500.36,85.93,515.4ZM70.31,496.15l-5.78-17.74-5.6,17.74Z" transform="translate(294 -187.5)"/><path class="cls-2" d="M695.32,515.9c2.54-7.18,4.71-13.42,6.95-19.64,3.1-8.6,6.42-17.12,9.3-25.79,1-3.06,3-3.39,5.32-2.87,1.78.39,4.36,1.3,4.87,2.63,5.49,14.44,10.66,29,15.89,43.55a5,5,0,0,1,.08,1.45c-8,1.8-8.73,1.6-10.83-6.1-1.11-4.11-3.07-5.94-7.28-5.22a12.12,12.12,0,0,1-2,0c-8.79,0-9.06-.09-11.53,8.13C704.26,518.14,700,515.31,695.32,515.9ZM717.38,480l-1.13,0c-1.58,5.21-3.17,10.42-4.81,15.84h11.09C720.69,490.23,719,485.13,717.38,480Z" transform="translate(294 -187.5)"/><path class="cls-2" d="M514.78,508.19v7.38H485.1V467.82h28.64v7.39H494.16v12.2H510v7.66H494.19v13.12Z" transform="translate(294 -187.5)"/><path class="cls-2" d="M126.37,506.44c2.38,7.86,2.11,8.34-5.16,9.8-16.88,3.38-30.17-4.92-32.45-20.4-1.53-10.46,1.47-19.42,10.57-25.14,9.51-6,19.5-5.58,29.87.31-1.12,2.36-2.14,4.53-3.27,6.9-9-3.58-17.61-5.06-24.5,3.51-3.91,4.86-4.12,13.92-.37,19.36C107.57,510.22,116.73,509.29,126.37,506.44Z" transform="translate(294 -187.5)"/><path class="cls-2" d="M335.34,602.87V553.58c8.78.27,17.73-1.6,26.38,1.73,10.3,4,16.15,14.42,14.67,25.72-1.64,12.56-9.15,20.69-20.93,21.73C348.89,603.35,342.23,602.87,335.34,602.87Zm5.86-5c9.58,0,19.28,2.2,25.43-7.72,4.83-7.77,4.77-17.38-.13-23.94-5.25-7.05-15.15-9.8-25.3-6.93Z" transform="translate(294 -187.5)"/><path class="cls-2" d="M547.13,602.84V553.11c8,.42,15.85-.05,23.35,1.44,11.94,2.35,18.46,12.73,17.63,25.84-.77,12.06-9,21.28-20.72,22.34C560.84,603.32,554.19,602.84,547.13,602.84Zm6-4.85c9.18-.26,18.73,2.12,25-7.39,5.19-7.92,5.24-17.54.18-24.33-5.26-7.07-14.94-9.79-25.14-7Z" transform="translate(294 -187.5)"/><path class="cls-2" d="M434,602.78V553c8.36.57,16.79.12,24.71,1.93,11.32,2.59,17.49,13.77,16.22,26.5-1.13,11.29-9.33,20.25-20.33,21.24C447.87,603.27,441.05,602.78,434,602.78Zm6-44.08V598c8.88-.22,18.2,2.21,24.36-6.65,5-7.17,6.45-15,2-23C460.47,557.87,450.61,557.83,440,558.7Z" transform="translate(294 -187.5)"/><path class="cls-2" d="M809.41,602.52c-4.66,1.51-7.06.13-9-3.3-2.6-4.64-5.9-8.89-8.49-13.53-2-3.66-4.7-4.79-9.18-3.5v20.63l-6,.28V553.64c6.61,0,12.94-.3,19.21.1a12.16,12.16,0,0,1,10.92,10.13,14.11,14.11,0,0,1-6.59,15c-1.4.82-2.91,1.44-4.74,2.34C800.17,588.32,804.66,595.23,809.41,602.52Zm-26.54-44.24V576.6c5.9-.54,12.55,2.28,16.08-4,1.58-2.8,1.8-8,.23-10.64C795.56,555.79,788.79,559.37,782.87,558.28Z" transform="translate(294 -187.5)"/><path class="cls-2" d="M228.38,553.52c5.83,0,11.3-.1,16.77,0,7.29.18,11.86,3.87,13.24,10.44s-1.73,12.57-8,15.6c-1,.49-2.05.93-3.45,1.57l14,21.27c-4,1.43-6.69.92-8.81-2.88-2.59-4.64-5.9-8.87-8.49-13.52-2.08-3.74-4.61-5.54-9.53-3.66v20.48h-5.76Zm5.84,23.05c6-.48,12.68,2.32,16.2-3.87,1.65-2.88,1.82-8.45.06-11.06-3.83-5.7-10.48-2.5-16.26-3.19Z" transform="translate(294 -187.5)"/><path class="cls-2" d="M11.39,467.67H40.54v7.56H20.23v12.55H36.78v7.6H20.08v20.17H11.39Z" transform="translate(294 -187.5)"/><path class="cls-2" d="M424,602.55c-3.74,1.25-5.9.85-7.29-3.3-3.64-10.93-3.86-10.86-15.59-10.86-8.37,0-8.41,0-11.48,9-1.28,3.73-2.27,7.66-7.94,5.16.26-1,.43-2.17.8-3.22,5.23-14.54,10.52-29,15.72-43.6.85-2.4,1.94-4.6,4.8-3.63,1.69.57,3.75,2,4.33,3.56,5.48,14.62,10.69,29.34,15.95,44A26.06,26.06,0,0,1,424,602.55Zm-20.53-41.13-1.16-.06-7.45,21h16C408.3,575,405.9,568.22,403.49,561.42Z" transform="translate(294 -187.5)"/><path class="cls-2" d="M627.51,515.17V475.49H613.38v-7.6H650.7v7.31H636.65v33.52C636.65,516.66,636.18,517,627.51,515.17Z" transform="translate(294 -187.5)"/><path class="cls-2" d="M677.34,553.51c5.7,0,11-.11,16.31,0,9.39.24,14.14,4.69,14.58,13.47.48,9.43-4.69,16.33-13.44,17.38-3.73.44-7.55.07-11.83.07v18.41h-5.62Zm5.86,25.88c6.36-.13,12.69,1.92,16.89-4.13,2.88-4.15,3.18-9,.26-13.09-4.41-6.14-11.09-3-17.15-3.74Z" transform="translate(294 -187.5)"/><path class="cls-2" d="M487.57,553.65h27.12v4.82H493.23c0,5.11-.18,9.74.16,14.33.06.92,2.07,2.34,3.25,2.41,4.62.28,9.27.12,14.23.12v5H493.51v17.51h22v5.06H487.57Z" transform="translate(294 -187.5)"/><path class="cls-2" d="M210.79,575.33c1.36,4.29-.27,5.19-3.5,5.07-4.45-.17-8.91,0-13.65,0v17.53h22v5.29c-8.69,0-17.15.09-25.6-.11a3.76,3.76,0,0,1-2.59-2.58c-.16-15.44-.12-30.88-.12-46.67h27.45v4.66H193.38c0,5.12-.18,9.76.15,14.35.07.91,2.09,2.32,3.27,2.4C201.42,575.5,206.06,575.33,210.79,575.33Z" transform="translate(294 -187.5)"/><path class="cls-2" d="M189.47,467.64h8.64v40.6h19.71v7.25H189.47Z" transform="translate(294 -187.5)"/><path class="cls-2" d="M543.18,467.77H552v40.49H571.5v7.2H543.18Z" transform="translate(294 -187.5)"/><path class="cls-2" d="M813.24,558.33v-4.62h38.45c.13,1.36.26,2.74.44,4.6h-16.3v44.05c-4.32,1.55-6.42,1.14-6.35-3.67.19-11.48.06-23,.06-34.46v-5.9Z" transform="translate(294 -187.5)"/><path class="cls-2" d="M120.93,602.68V553.75h5.76v9.34c0,11.78-.13,23.57.07,35.36C126.83,602.49,125.6,604.07,120.93,602.68Z" transform="translate(294 -187.5)"/><path class="cls-2" d="M312.32,553.65h5.6v49c-4.16,1.42-5.74.28-5.68-4.21C312.44,583.68,312.32,568.93,312.32,553.65Z" transform="translate(294 -187.5)"/></svg>