<svg id="icons" enable-background="new 0 0 64 64" height="64" viewBox="0 0 64 64" width="64" xmlns="http://www.w3.org/2000/svg"><g><g><path d="m61 27.5h-58l29-6.99z" fill="#ccd1d9"/></g><g><path d="m36.01 10.5c0 2.21-1.8 4-4.01 4s-4-1.79-4-4c2.22 0 4-1.79 4-4 2.22 0 4 1.79 4 4z" fill="#ffce54"/></g><g><path d="m61 27.5v13.01h-58v-13.01zm-4 9v-5h-5v5zm-9 0v-5h-5v5zm-9 0v-5h-5v5zm-9 0v-5h-5v5zm-9 0v-5h-5v5zm-9 0v-5h-5v5z" fill="#e6e9ed"/></g><g><path d="m36.01 10.5h-.01c0-2.21-1.78-4-4-4 0 2.21-1.78 4-4 4 0 2.21 1.79 4 4 4s4.01-1.79 4.01-4zm2.99 0c0 3.87-3.13 7-7 7-3.86 0-7-3.13-7-7v-4c2.77 0 5-2.24 5-5 4.98 0 9 4.03 9 9z" fill="#fc6e51"/></g><g><g><path d="m7 31.5h5v5h-5z" fill="#5d9cec"/></g><g><path d="m25 31.5h5v5h-5z" fill="#5d9cec"/></g><g><path d="m16 31.5h5v5h-5z" fill="#5d9cec"/></g><g><path d="m52 31.5h5v5h-5z" fill="#5d9cec"/></g><g><path d="m34 31.5h5v5h-5z" fill="#5d9cec"/></g><g><path d="m43 31.5h5v5h-5z" fill="#5d9cec"/></g></g><g><g><path d="m43 50.5h14v3h-14z" fill="#ccd1d9"/></g><g><path d="m25 53.5h14v3h-14z" fill="#ccd1d9"/></g><g><path d="m25 44.51h14v2.99h-14z" fill="#ccd1d9"/></g><g><path d="m25 47.5h14v3h-14z" fill="#ccd1d9"/></g><g><path d="m25 56.5h14v3h-14z" fill="#ccd1d9"/></g><g><path d="m7 47.5h14v3h-14z" fill="#ccd1d9"/></g><g><path d="m7 56.5h14v3h-14z" fill="#ccd1d9"/></g><g><path d="m43 59.5h14v3h-14z" fill="#ccd1d9"/></g><g><path d="m7 50.5h14v3h-14z" fill="#ccd1d9"/></g><g><path d="m7 59.5h14v3h-14z" fill="#ccd1d9"/></g><g><path d="m43 56.5h14v3h-14z" fill="#ccd1d9"/></g><g><path d="m43 53.5h14v3h-14z" fill="#ccd1d9"/></g><g><path d="m25 59.5h14v3h-14z" fill="#ccd1d9"/></g><g><path d="m43 44.51h14v2.99h-14z" fill="#ccd1d9"/></g><g><path d="m25 50.5h14v3h-14z" fill="#ccd1d9"/></g><g><path d="m7 44.51h14v2.99h-14z" fill="#ccd1d9"/></g><g><path d="m7 53.5h14v3h-14z" fill="#ccd1d9"/></g><g><path d="m43 47.5h14v3h-14z" fill="#ccd1d9"/></g></g><g><path d="m61 24.5v3l-29-6.99-29 6.99v-3l29-7z" fill="#656d78"/></g><g><path d="m43 59.5v3h-4v-3-3-3-3-3-2.99h-14v2.99 3 3 3 3 3h-4v-3-3-3-3-3-2.99h-14v2.99 3 3 3 3 3h-4v-21.99h58v21.99h-4v-3-3-3-3-3-2.99h-14v2.99 3 3 3z" fill="#ed5565"/></g><g><g><path d="m61.001 25.5c-.078 0-.157-.009-.235-.028l-29-7c-.537-.13-.867-.67-.737-1.207s.667-.866 1.207-.737l29 7c.537.13.867.67.737 1.207-.112.458-.521.765-.972.765z"/></g><g><path d="m2.999 25.5c-.451 0-.86-.307-.971-.765-.129-.537.201-1.077.737-1.207l29-7c.539-.128 1.077.201 1.207.737.13.537-.2 1.077-.737 1.207l-29 7c-.079.019-.158.028-.236.028z"/></g><g><path d="m61.001 28.5c-.078 0-.156-.009-.235-.028l-29-6.99c-.537-.129-.867-.669-.738-1.207.129-.537.67-.866 1.207-.738l29 6.99c.537.129.867.669.737 1.207-.111.458-.52.766-.971.766z"/></g><g><path d="m2.999 28.5c-.451 0-.861-.308-.971-.766-.129-.537.201-1.077.738-1.207l29-6.99c.535-.128 1.076.201 1.206.738s-.2 1.077-.737 1.207l-29 6.99c-.079.019-.158.028-.236.028z"/></g><g><path d="m57 37.5h-5c-.553 0-1-.447-1-1v-5c0-.552.447-1 1-1h5c.553 0 1 .448 1 1v5c0 .553-.447 1-1 1zm-4-2h3v-3h-3z"/></g><g><path d="m48 37.5h-5c-.553 0-1-.447-1-1v-5c0-.552.447-1 1-1h5c.553 0 1 .448 1 1v5c0 .553-.447 1-1 1zm-4-2h3v-3h-3z"/></g><g><path d="m39 37.5h-5c-.553 0-1-.447-1-1v-5c0-.552.447-1 1-1h5c.553 0 1 .448 1 1v5c0 .553-.447 1-1 1zm-4-2h3v-3h-3z"/></g><g><path d="m30 37.5h-5c-.552 0-1-.447-1-1v-5c0-.552.448-1 1-1h5c.552 0 1 .448 1 1v5c0 .553-.448 1-1 1zm-4-2h3v-3h-3z"/></g><g><path d="m21 37.5h-5c-.552 0-1-.447-1-1v-5c0-.552.448-1 1-1h5c.552 0 1 .448 1 1v5c0 .553-.448 1-1 1zm-4-2h3v-3h-3z"/></g><g><path d="m12 37.5h-5c-.552 0-1-.447-1-1v-5c0-.552.448-1 1-1h5c.552 0 1 .448 1 1v5c0 .553-.448 1-1 1zm-4-2h3v-3h-3z"/></g><g><path d="m3 28.5c-.552 0-1-.448-1-1v-3c0-.552.448-1 1-1s1 .448 1 1v3c0 .552-.448 1-1 1z"/></g><g><path d="m61 28.5c-.553 0-1-.448-1-1v-3c0-.552.447-1 1-1s1 .448 1 1v3c0 .552-.447 1-1 1z"/></g><g><path d="m61 41.51c-.553 0-1-.447-1-1v-12.01h-56v12.01c0 .553-.448 1-1 1s-1-.447-1-1v-13.01c0-.552.448-1 1-1h58c.553 0 1 .448 1 1v13.01c0 .553-.447 1-1 1z"/></g><g><path d="m57 60.5h-14c-.553 0-1-.447-1-1s.447-1 1-1h14c.553 0 1 .447 1 1s-.447 1-1 1z"/></g><g><path d="m57 57.5h-14c-.553 0-1-.447-1-1s.447-1 1-1h14c.553 0 1 .447 1 1s-.447 1-1 1z"/></g><g><path d="m57 54.5h-14c-.553 0-1-.447-1-1s.447-1 1-1h14c.553 0 1 .447 1 1s-.447 1-1 1z"/></g><g><path d="m57 51.5h-14c-.553 0-1-.447-1-1s.447-1 1-1h14c.553 0 1 .447 1 1s-.447 1-1 1z"/></g><g><path d="m57 48.5h-14c-.553 0-1-.447-1-1s.447-1 1-1h14c.553 0 1 .447 1 1s-.447 1-1 1z"/></g><g><path d="m57 63.5c-.553 0-1-.447-1-1v-16.99h-12v16.99c0 .553-.447 1-1 1s-1-.447-1-1v-17.99c0-.553.447-1 1-1h14c.553 0 1 .447 1 1v17.99c0 .553-.447 1-1 1z"/></g><g><path d="m39 60.5h-14c-.552 0-1-.447-1-1s.448-1 1-1h14c.553 0 1 .447 1 1s-.447 1-1 1z"/></g><g><path d="m39 57.5h-14c-.552 0-1-.447-1-1s.448-1 1-1h14c.553 0 1 .447 1 1s-.447 1-1 1z"/></g><g><path d="m39 54.5h-14c-.552 0-1-.447-1-1s.448-1 1-1h14c.553 0 1 .447 1 1s-.447 1-1 1z"/></g><g><path d="m39 51.5h-14c-.552 0-1-.447-1-1s.448-1 1-1h14c.553 0 1 .447 1 1s-.447 1-1 1z"/></g><g><path d="m39 48.5h-14c-.552 0-1-.447-1-1s.448-1 1-1h14c.553 0 1 .447 1 1s-.447 1-1 1z"/></g><g><path d="m39 63.5c-.553 0-1-.447-1-1v-16.99h-12v16.99c0 .553-.448 1-1 1s-1-.447-1-1v-17.99c0-.553.448-1 1-1h14c.553 0 1 .447 1 1v17.99c0 .553-.447 1-1 1z"/></g><g><path d="m21 60.5h-14c-.552 0-1-.447-1-1s.448-1 1-1h14c.552 0 1 .447 1 1s-.448 1-1 1z"/></g><g><path d="m21 57.5h-14c-.552 0-1-.447-1-1s.448-1 1-1h14c.552 0 1 .447 1 1s-.448 1-1 1z"/></g><g><path d="m21 54.5h-14c-.552 0-1-.447-1-1s.448-1 1-1h14c.552 0 1 .447 1 1s-.448 1-1 1z"/></g><g><path d="m21 51.5h-14c-.552 0-1-.447-1-1s.448-1 1-1h14c.552 0 1 .447 1 1s-.448 1-1 1z"/></g><g><path d="m21 48.5h-14c-.552 0-1-.447-1-1s.448-1 1-1h14c.552 0 1 .447 1 1s-.448 1-1 1z"/></g><g><path d="m21 63.5c-.552 0-1-.447-1-1v-16.99h-12v16.99c0 .553-.448 1-1 1s-1-.447-1-1v-17.99c0-.553.448-1 1-1h14c.552 0 1 .447 1 1v17.99c0 .553-.448 1-1 1z"/></g><g><path d="m61 63.5c-.553 0-1-.447-1-1v-20.99h-56v20.99c0 .553-.448 1-1 1s-1-.447-1-1v-21.99c0-.553.448-1 1-1h58c.553 0 1 .447 1 1v21.99c0 .553-.447 1-1 1z"/></g><g><path d="m63 63.5h-62c-.552 0-1-.447-1-1s.448-1 1-1h62c.553 0 1 .447 1 1s-.447 1-1 1z"/></g><g><path d="m25 11.5c-.552 0-1-.448-1-1v-4c0-.552.448-1 1-1s1 .448 1 1v4c0 .552-.448 1-1 1z"/></g><g><path d="m32 18.5c-4.411 0-8-3.589-8-8 0-.552.448-1 1-1s1 .448 1 1c0 3.309 2.691 6 6 6s6-2.691 6-6c0-.552.447-1 1-1s1 .448 1 1c0 4.411-3.589 8-8 8z"/></g><g><path d="m32 15.5c-2.757 0-5-2.243-5-5 0-.552.448-1 1-1s1 .448 1 1c0 1.654 1.346 3 3 3 1.659 0 3.01-1.346 3.01-3 0-.552.447-1 1-1s1 .448 1 1c0 2.757-2.247 5-5.01 5z"/></g><g><path d="m39 11.5c-.553 0-1-.448-1-1 0-4.411-3.589-8-8-8-.552 0-1-.448-1-1s.448-1 1-1c5.514 0 10 4.486 10 10 0 .552-.447 1-1 1z"/></g><g><path d="m36 11.5c-.553 0-1-.448-1-1 0-1.654-1.346-3-3-3-.552 0-1-.448-1-1s.448-1 1-1c2.757 0 5 2.243 5 5 0 .552-.447 1-1 1z"/></g><g><path d="m25 7.5c-.552 0-1-.448-1-1s.448-1 1-1c2.206 0 4-1.794 4-4 0-.552.448-1 1-1s1 .448 1 1c0 3.309-2.691 6-6 6z"/></g><g><path d="m28 11.5c-.552 0-1-.448-1-1s.448-1 1-1c1.654 0 3-1.346 3-3 0-.552.448-1 1-1 .553 0 1 .448 1 1 0 2.757-2.243 5-5 5z"/></g></g></g></svg>