<?xml version="1.0" encoding="iso-8859-1"?>
<!-- Generator: Adobe Illustrator 19.0.0, SVG Export Plug-In . SVG Version: 6.00 Build 0)  -->
<svg version="1.1" id="Capa_1" xmlns="http://www.w3.org/2000/svg" xmlns:xlink="http://www.w3.org/1999/xlink" x="0px" y="0px"
	 viewBox="0 0 512.001 512.001" style="enable-background:new 0 0 512.001 512.001;" xml:space="preserve">
<path style="fill:#FF6D3A;" d="M461.983,67.726l-48.6-54.645c-5.455-6.134-14.63-7.262-21.391-2.608
	c-51.466,35.423-108.829,10.947-128.718,0.401c-4.54-2.408-9.96-2.408-14.5,0c-19.889,10.546-77.252,35.022-128.718-0.401
	c-6.762-4.654-15.936-3.525-21.391,2.608l-48.6,54.645c-7.165,8.055-4.595,20.693,5.118,25.371
	c17.87,8.606,39.291,37.591,31.136,72.253c-18.731,79.608-141.656,229.133,77.507,293.228c39.32,11.499,73.812,21.385,90.489,44.919
	c0.837,1.181,2.582,1.181,3.419,0c16.677-23.534,51.169-33.419,90.489-44.919c219.164-64.095,96.238-213.62,77.507-293.228
	c-8.156-34.661,13.266-63.647,31.136-72.253C466.578,88.419,469.148,75.781,461.983,67.726z"/>
<path style="fill:#ED5729;" d="M456.865,93.097c9.713-4.678,12.283-17.316,5.118-25.371l-9.991-11.233
	c-9.557,5.108-21.467,12.791-35.923,24.376c-15.477,12.404-39.468,40.338-31.313,75c18.731,79.608,141.656,222.437-77.507,286.532
	c-31.97,9.35-60.748,22.06-79.354,39.134c10.946,5.882,20.004,12.91,26.418,21.961c0.837,1.181,2.582,1.181,3.419,0
	c16.677-23.534,51.169-33.419,90.489-44.919c219.164-64.095,96.238-213.62,77.507-293.228
	C417.574,130.689,438.995,101.703,456.865,93.097z"/>
<path style="fill:#FFBF14;" d="M259.297,464.238c-1.987,1.308-4.559,1.307-6.547,0c-22.399-14.738-50.858-23.059-80.439-31.708
	l-1.267-0.37c-54.293-15.878-88.467-37.885-101.573-65.411c-18.331-38.501,3.445-90.361,22.659-136.117
	c8.891-21.174,17.289-41.173,21.618-59.571c8.828-37.519-5.858-73.182-28.326-94.404c-2.354-2.224-2.505-5.915-0.353-8.335
	l22.995-25.855c1.829-2.056,4.816-2.595,7.259-1.328c19.506,10.118,40.858,15.232,63.692,15.231
	c30.583,0,57.358-9.343,74.506-17.226c1.593-0.732,3.411-0.732,5.004,0c17.15,7.884,43.927,17.228,74.508,17.226
	c22.836-0.001,44.187-5.115,63.69-15.232c2.443-1.267,5.43-0.729,7.259,1.328l22.995,25.855c2.152,2.42,2.002,6.112-0.353,8.335
	c-22.469,21.222-37.154,56.886-28.326,94.405c4.329,18.398,12.726,38.397,21.618,59.571c19.213,45.755,40.99,97.616,22.659,136.117
	c-13.106,27.525-47.28,49.533-101.573,65.411l-1.265,0.37C310.158,441.178,281.697,449.5,259.297,464.238z"/>
<path style="fill:#EAA200;" d="M419.917,230.631c-8.891-21.173-17.289-41.173-21.618-59.571
	c-8.829-37.519,5.857-73.183,28.326-94.405c2.354-2.224,2.505-5.915,0.353-8.335l-21.87-24.59
	C394.6,52.744,383.87,61.945,383.79,62.021c-22.469,21.222-37.154,56.886-28.326,94.405c4.329,18.398,12.726,38.397,21.618,59.571
	c19.213,45.755,40.99,97.616,22.659,136.117c-13.106,27.525-47.28,49.533-101.573,65.411l-1.265,0.37
	c-28.276,8.268-55.516,16.252-77.43,29.812c12.009,4.63,23.253,9.935,33.277,16.531c1.987,1.308,4.559,1.308,6.547,0
	c22.399-14.738,50.861-23.06,80.441-31.709l1.265-0.37c54.293-15.878,88.467-37.886,101.573-65.411
	C460.907,328.247,439.13,276.386,419.917,230.631z"/>
<circle style="fill:#E9FEFF;" cx="256.02" cy="250.151" r="129.01"/>
<path style="fill:#D6F2F2;" d="M256.024,121.141c-6.973,0-13.813,0.561-20.486,1.626c61.515,9.816,108.527,63.108,108.527,127.387
	s-47.013,117.571-108.527,127.387c6.673,1.065,13.514,1.626,20.486,1.626c71.252,0,129.013-57.761,129.013-129.013
	S327.276,121.141,256.024,121.141z"/>
<path style="fill:#FF6D3A;" d="M258.744,160.583l17.992,55.374c0.383,1.179,1.481,1.977,2.72,1.977h58.224
	c2.771,0,3.923,3.546,1.681,5.175l-47.104,34.223c-1.003,0.728-1.422,2.02-1.039,3.198l17.992,55.374
	c0.856,2.635-2.16,4.827-4.402,3.198l-47.104-34.223c-1.003-0.728-2.36-0.728-3.363,0l-47.104,34.223
	c-2.242,1.629-5.258-0.563-4.402-3.198l17.992-55.374c0.383-1.179-0.037-2.47-1.039-3.198l-47.104-34.223
	c-2.242-1.629-1.09-5.175,1.681-5.175h58.224c1.239,0,2.338-0.798,2.72-1.977l17.992-55.374
	C254.16,157.948,257.888,157.948,258.744,160.583z"/>
<path d="M256.024,386.786c75.339,0,136.632-61.293,136.632-136.632s-61.293-136.632-136.632-136.632
	s-136.632,61.293-136.632,136.632S180.685,386.786,256.024,386.786z M256.024,128.76c66.937,0,121.394,54.457,121.394,121.394
	s-54.457,121.394-121.394,121.394S134.63,317.091,134.63,250.154S189.087,128.76,256.024,128.76z"/>
<path d="M168.207,229.273l44.307,32.191l-16.924,52.087c-1.407,4.332,0.124,9.04,3.808,11.716c1.842,1.338,4,2.007,6.159,2.007
	s4.317-0.669,6.159-2.008l44.308-32.191l44.307,32.191c3.684,2.677,8.635,2.677,12.319,0.001c3.685-2.677,5.215-7.385,3.808-11.717
	l-16.924-52.086l44.308-32.191c3.684-2.678,5.213-7.386,3.806-11.717c-1.408-4.331-5.413-7.24-9.967-7.24h-54.767L265.99,158.23
	c-1.407-4.331-5.412-7.241-9.965-7.241c0,0,0,0-0.001,0c-4.553,0-8.559,2.91-9.967,7.241l-16.924,52.087h-54.767
	c-4.554,0-8.559,2.91-9.967,7.241C162.993,221.887,164.523,226.596,168.207,229.273z M232.591,225.553
	c4.554,0,8.559-2.91,9.966-7.241l13.467-41.446l13.467,41.446c1.407,4.331,5.412,7.241,9.966,7.241h43.579l-35.256,25.614
	c-3.684,2.677-5.215,7.385-3.807,11.717l13.466,41.445l-35.256-25.615c-3.685-2.677-8.636-2.676-12.319,0l-35.256,25.615
	l13.467-41.446c1.407-4.332-0.124-9.04-3.807-11.716l-35.256-25.615L232.591,225.553L232.591,225.553z"/>
<path d="M454.336,220.674c-1.626-3.881-6.091-5.709-9.971-4.082c-3.881,1.626-5.708,6.091-4.082,9.972
	c17.897,42.701,42.407,101.183,19.986,148.233c-16.049,33.678-53.399,58.691-114.185,76.469l-1.247,0.364
	c-37.257,10.894-69.828,20.418-88.813,41.794c-18.985-21.376-51.556-30.9-88.812-41.794l-1.247-0.365
	c-60.777-17.775-98.126-42.783-114.179-76.454c-20.696-43.41-2.571-94.389,19.531-147.179c1.625-3.881-0.204-8.345-4.085-9.97
	c-3.881-1.626-8.346,0.204-9.97,4.085c-18.812,44.93-44.574,106.462-19.23,159.621c18.027,37.812,58.475,65.459,123.656,84.521
	l1.248,0.366c37.666,11.013,70.196,20.525,85.163,41.647c1.82,2.567,4.783,4.099,7.927,4.099c3.143,0,6.106-1.533,7.924-4.1
	c14.967-21.122,47.497-30.633,85.165-41.647l1.246-0.365c65.19-19.065,105.641-46.718,123.664-84.538
	C499.379,328.146,473.345,266.029,454.336,220.674z"/>
<path d="M51.877,99.961c24.615,11.855,31.511,44.579,27.025,63.644c-1.66,7.054-4.288,15.175-8.27,25.556
	c-1.507,3.928,0.456,8.335,4.385,9.842c0.898,0.344,1.819,0.507,2.727,0.507c3.063,0,5.952-1.861,7.115-4.892
	c4.234-11.038,7.054-19.784,8.876-27.523c5.179-22.012-0.656-39.967-6.463-51.153c-6.868-13.231-17.629-24.337-28.784-29.71
	c-2.47-1.189-4.194-3.407-4.73-6.083c-0.531-2.653,0.197-5.335,1.998-7.36l48.6-54.645c2.902-3.263,7.793-3.864,11.379-1.396
	c23.747,16.345,51.167,22.643,81.498,18.719c24.654-3.19,45.11-12.561,55.109-17.863c2.304-1.223,5.056-1.223,7.361,0
	c9.999,5.302,30.455,14.673,55.109,17.863c30.327,3.923,57.75-2.373,81.498-18.719c3.585-2.468,8.476-1.868,11.378,1.396
	l48.6,54.645c1.801,2.025,2.53,4.708,1.999,7.361c-0.535,2.676-2.259,4.893-4.73,6.082c-11.155,5.372-21.915,16.479-28.783,29.71
	c-5.807,11.186-11.642,29.141-6.463,51.153c1.764,7.499,4.45,15.893,8.453,26.417c1.496,3.932,5.895,5.909,9.83,4.413
	c3.933-1.496,5.909-5.897,4.413-9.83c-3.758-9.88-6.256-17.662-7.862-24.49c-4.486-19.065,2.41-51.789,27.025-63.644
	c6.818-3.283,11.578-9.414,13.06-16.821c1.478-7.384-0.547-14.847-5.555-20.478l-48.6-54.645c-8-8.996-21.5-10.638-31.404-3.822
	c-15.796,10.873-59.19,32.631-120.829-0.054c-6.774-3.593-14.864-3.592-21.639,0c-61.64,32.684-105.034,10.925-120.829,0.054
	C114.47-2.621,100.97-0.978,92.97,8.016l-48.6,54.645c-5.008,5.63-7.032,13.094-5.554,20.478
	C40.3,90.547,45.06,96.678,51.877,99.961z"/>
<path d="M85.107,227.682c-19.832,47.23-42.311,100.761-22.513,142.342c14.078,29.569,49.847,52.934,106.313,69.448l1.27,0.372
	c29.283,8.562,56.942,16.65,78.387,30.76c2.266,1.492,4.863,2.237,7.461,2.237s5.195-0.746,7.461-2.237
	c21.445-14.11,49.106-22.198,78.392-30.762l1.264-0.37c56.464-16.514,92.234-39.88,106.313-69.449
	c19.798-41.58-2.68-95.11-22.513-142.341c-8.764-20.87-17.042-40.582-21.226-58.366c-3.813-16.203-3.037-33.208,2.243-49.176
	c4.836-14.625,13.1-27.746,23.897-37.944c5.382-5.083,5.739-13.401,0.814-18.938l-22.994-25.857
	c-4.145-4.66-10.915-5.905-16.46-3.027c-18.389,9.538-38.637,14.375-60.183,14.376c-0.003,0-0.005,0-0.009,0
	c-29.226,0-54.912-8.988-71.314-16.529c-3.612-1.662-7.757-1.661-11.369,0c-16.401,7.541-42.088,16.529-71.324,16.529
	c-21.543,0.001-41.792-4.836-60.183-14.375c-5.546-2.878-12.316-1.634-16.46,3.027L79.377,63.257
	c-4.924,5.537-4.566,13.855,0.815,18.937c10.797,10.199,19.061,23.319,23.897,37.944c5.28,15.969,6.056,32.973,2.244,49.176
	C102.15,187.093,93.873,206.805,85.107,227.682z M91.8,72.217l21.122-23.748c20.284,10.299,42.513,15.52,66.094,15.519
	c31.585,0,59.197-9.501,77.008-17.611c17.813,8.11,45.419,17.612,76.999,17.611c0.002,0,0.008,0,0.01,0
	c23.582-0.001,45.811-5.222,66.092-15.519l21.122,23.748c-21.064,20.568-39.525,57.411-29.365,100.588
	c4.476,19.021,12.993,39.303,22.011,60.777c18.593,44.281,39.668,94.47,22.804,129.89c-12.134,25.482-44.713,46.131-96.834,61.374
	l-1.264,0.37c-30.016,8.777-58.389,17.073-81.576,32.061c-23.185-14.988-51.556-23.283-81.573-32.06l-1.267-0.371
	c-52.121-15.243-84.7-35.892-96.833-61.373c-16.865-35.421,4.21-85.611,22.808-129.898c9.017-21.473,17.533-41.755,22.007-60.769
	C131.324,129.629,112.864,92.786,91.8,72.217z"/>
<g>
</g>
<g>
</g>
<g>
</g>
<g>
</g>
<g>
</g>
<g>
</g>
<g>
</g>
<g>
</g>
<g>
</g>
<g>
</g>
<g>
</g>
<g>
</g>
<g>
</g>
<g>
</g>
<g>
</g>
</svg>
